Coordinates
version=1
nRows=5
nColumns=63
inDegrees=yes

Units are S.I. units (second, meters, Newtons, ...)
If the header above contains a line with 'inDegrees', this indicates whether rotational values are in degrees (yes) or radians (no).

endheader
time	pelvis_tilt	pelvis_list	pelvis_rotation	pelvis_tx	pelvis_ty	pelvis_tz	hip_flexion_r	hip_adduction_r	hip_rotation_r	knee_angle_r	knee_angle_r_beta	ankle_angle_r	subtalar_angle_r	mtp_angle_r	hip_flexion_l	hip_adduction_l	hip_rotation_l	knee_angle_l	knee_angle_l_beta	ankle_angle_l	subtalar_angle_l	mtp_angle_l	L5_S1_Flex_Ext	L5_S1_Lat_Bending	L5_S1_axial_rotation	L4_L5_Flex_Ext	L4_L5_Lat_Bending	L4_L5_axial_rotation	L3_L4_Flex_Ext	L3_L4_Lat_Bending	L3_L4_axial_rotation	L2_L3_Flex_Ext	L2_L3_Lat_Bending	L2_L3_axial_rotation	L1_L2_Flex_Ext	L1_L2_Lat_Bending	L1_L2_axial_rotation	L1_T12_Flex_Ext	L1_T12_Lat_Bending	L1_T12_axial_rotation	Abs_r3	Abs_r2	Abs_r1	Abs_t1	Abs_t2	neck_flexion	neck_bending	neck_rotation	arm_flex_r	arm_add_r	arm_rot_r	elbow_flex_r	pro_sup_r	wrist_flex_r	wrist_dev_r	arm_flex_l	arm_add_l	arm_rot_l	elbow_flex_l	pro_sup_l	wrist_flex_l	wrist_dev_l
      7.35000000	     -2.49120691	    -16.60680212	     87.24651837	      0.19254917	      1.03470542	      0.18615671	     19.13689196	     -0.48704043	     10.86799344	      3.82210321	      0.06670829	     30.41689729	     -7.03538671	      0.00000000	     20.81167816	      3.26516530	      9.46669963	      8.13331406	      0.14195311	     26.01097296	    -17.01455586	      0.00000000	      0.10444074	     -0.58387562	      0.91118849	      0.19395689	     -0.77655457	      0.96813777	      0.17158569	     -1.41963517	      0.96813777	      0.11936532	     -1.41963517	      0.79728993	      0.09698367	     -1.19063915	      0.74034065	      0.05967744	     -0.90442333	      0.68339137	      0.74600975	     -6.60491773	      5.06775703	      0.00000000	      0.00000000	     24.25839655	      2.57335094	     -1.75901528	     16.51944051	    -10.99115538	     64.38415579	     49.72465017	     45.02175771	     -3.03651258	      4.48715163	     18.08661137	    -10.64881747	     52.30697917	     62.13753815	     75.64091693	      3.39015757	     13.43942990
      7.36666667	     -2.41380507	    -16.55018388	     87.25530279	      0.19238702	      1.03439980	      0.18603034	     19.20441686	     -0.38270408	     10.86842113	      4.19231015	      0.07316962	     30.58710049	     -7.19632345	      0.00000000	     20.81590498	      3.20558896	      9.40641686	      8.37515937	      0.14617411	     26.12368086	    -17.07493376	      0.00000000	      0.12460838	     -0.57839078	      0.86880774	      0.23141023	     -0.76925974	      0.92310823	      0.20471912	     -1.40629935	      0.92310823	      0.14241492	     -1.40629935	      0.76020678	      0.11571135	     -1.17945448	      0.70590629	      0.07120123	     -0.89592732	      0.65160581	      0.89006523	     -6.54287219	      4.83204803	      0.00000000	      0.00000000	     24.24743198	      2.96594480	     -1.68049278	     16.51480423	    -10.28238587	     64.98886414	     49.98330276	     44.03276175	     -2.93276093	      5.89986325	     17.13618470	    -10.79212069	     54.70133917	     60.61704672	     76.23343644	      4.07074959	     12.94383968
      7.38333333	     -2.25993178	    -16.35000125	     87.35032117	      0.19190110	      1.03423611	      0.18578576	     19.05913339	     -0.26463441	     10.70969280	      4.47247339	      0.07805939	     30.84163006	     -7.05864580	      0.00000000	     20.62670255	      3.11414116	      9.53522315	      8.49443268	      0.14825582	     26.37121109	    -17.06601249	      0.00000000	      0.12746739	     -0.55311474	      0.80907859	      0.23671969	     -0.73564261	      0.85964601	      0.20941618	     -1.34484319	      0.85964601	      0.14568248	     -1.34484319	      0.70794377	      0.11836622	     -1.12791158	      0.65737636	      0.07283487	     -0.85677474	      0.60680895	      0.91048684	     -6.25694460	      4.49985242	      0.00000000	      0.00000000	     24.12802051	      2.91288583	     -1.33781811	     16.14581562	     -9.81869359	     66.07278010	     50.75452669	     35.45056260	     -4.02930493	      8.44918490	     16.36599163	    -10.90325696	     57.96396538	     58.44605948	     77.92822805	      4.35769145	     11.16668511
      7.40000000	     -2.11366863	    -16.07168478	     87.51874007	      0.19141041	      1.03402268	      0.18529950	     18.81994388	     -0.17260717	     10.46296081	      4.76167801	      0.08310696	     31.16727850	     -6.94071937	      0.00000000	     20.30253199	      3.05449704	      9.85892622	      8.51285401	      0.14857733	     26.67500530	    -17.03610600	      0.00000000	      0.13473994	     -0.52551205	      0.71446574	      0.25022554	     -0.69893103	      0.75911985	      0.22136424	     -1.27773000	      0.75911985	      0.15399427	     -1.27773000	      0.62515752	      0.12511950	     -1.07162417	      0.58050341	      0.07699040	     -0.81401816	      0.53584930	      0.96243389	     -5.94469740	      3.97364410	      0.00000000	      0.00000000	     23.65381934	      2.93549959	     -0.66005535	     15.52772119	     -9.30240467	     66.61449824	     50.84697840	     35.45334458	     -4.05394128	     10.81970257	     15.85603139	    -11.03243005	     62.09152522	     56.16037103	     80.78754241	      4.04567513	      9.62169950
      7.41666667	     -2.00775444	    -15.65305293	     87.67090526	      0.19101274	      1.03394690	      0.18456606	     18.42711643	     -0.12808220	     10.12597948	      5.04811366	      0.08810620	     31.59786817	     -6.64425648	      0.00000000	     19.77493639	      3.03229750	     10.22549988	      8.44875265	      0.14745855	     26.92285393	    -17.01561671	      0.00000000	      0.13191352	     -0.50165001	      0.63555302	      0.24497661	     -0.66719451	      0.67527508	      0.21672073	     -1.21971183	      0.67527508	      0.15076397	     -1.21971183	      0.55610889	      0.12249490	     -1.02296470	      0.51638683	      0.07537539	     -0.77705586	      0.47666476	      0.94224511	     -5.67476522	      3.53475521	      0.00000000	      0.00000000	     23.01422569	      2.99205273	     -0.08595314	     14.94681404	     -8.85781440	     67.50866640	     50.61317788	     37.00456363	     -3.75233219	     12.58317433	     15.65103996	    -11.01515362	     66.92740707	     53.89346922	     83.85927894	      3.05129587	      8.06666824
